<svg xmlns="http://www.w3.org/2000/svg" width="36.589" height="36.589" viewBox="0 0 36.589 36.589"><g transform="translate(0 16.048) rotate(-38)"><path d="M10.318,5.43v12.49a4.344,4.344,0,0,1-8.689,0V4.344a2.715,2.715,0,0,1,5.431,0v11.4a1.086,1.086,0,0,1-2.172,0V5.431H3.258V15.749a2.715,2.715,0,0,0,5.431,0V4.344A4.344,4.344,0,0,0,0,4.344V17.921a5.974,5.974,0,0,0,11.947,0V5.43Z" transform="translate(7.603 1.086)" fill="#4285f4"/><path d="M0,0H26.067V26.067H0Z" transform="translate(0 0)" fill="none"/></g></svg>