<svg xmlns="http://www.w3.org/2000/svg" width="23.922" height="30.308" viewBox="0 0 23.922 30.308"><g transform="translate(-684 -490.541)"><g transform="translate(684 490.541)"><g transform="translate(0 0)"><g transform="translate(0 20.62)"><circle cx="1.812" cy="1.812" r="1.812" transform="translate(0.079 0.66) rotate(-9.217)" fill="#41aa54"/><path d="M2089.494,3628.672a2.158,2.158,0,1,1,2.158-2.158A2.16,2.16,0,0,1,2089.494,3628.672Zm0-3.624a1.466,1.466,0,1,0,1.466,1.466A1.468,1.468,0,0,0,2089.494,3625.048Z" transform="translate(-2087.336 -3624.356)" fill="#41aa54"/></g><g transform="translate(1.937)"><path d="M2143.4,3243.484h-8.817a4.357,4.357,0,0,0-4.357,4.357v20.9a4.357,4.357,0,0,0,4.357,4.357h12.578a4.357,4.357,0,0,0,4.357-4.357V3251.6Z" transform="translate(-2129.876 -3243.138)" fill="#fff"/><path d="M2141,3267.292h-12.578a4.708,4.708,0,0,1-4.7-4.7v-20.9a4.708,4.708,0,0,1,4.7-4.7h8.817a.346.346,0,0,1,.245.1l8.118,8.119a.345.345,0,0,1,.1.245v17.14A4.708,4.708,0,0,1,2141,3267.292Zm-12.578-29.615a4.016,4.016,0,0,0-4.011,4.011v20.9a4.015,4.015,0,0,0,4.011,4.011H2141a4.015,4.015,0,0,0,4.011-4.011v-17l-7.916-7.916Z" transform="translate(-2123.723 -3236.984)" fill="#41aa54"/></g><g transform="translate(15.111 0)"><path d="M2377.707,3243.484l8.118,8.118h-6.387a1.731,1.731,0,0,1-1.731-1.731Z" transform="translate(-2377.361 -3243.138)" fill="#41aa54"/><path d="M2379.672,3245.8h-6.388a2.08,2.08,0,0,1-2.077-2.077v-6.387a.346.346,0,0,1,.591-.244l8.1,8.1a.346.346,0,0,1-.228.606Zm-7.773-7.629v5.552a1.387,1.387,0,0,0,1.385,1.385h5.552Z" transform="translate(-2371.207 -3236.985)" fill="#41aa54"/></g><g transform="translate(0.028 11.983)"><path d="M2096.31,3468.6a1.949,1.949,0,0,0-1.948,1.949v8.16h.036a1.949,1.949,0,0,1,1.913-1.578h19.625V3468.6Z" transform="translate(-2094.015 -3468.257)" fill="#41aa54"/><path d="M2088.243,3472.9h-.035a.346.346,0,0,1-.346-.346v-8.16a2.3,2.3,0,0,1,2.295-2.295h19.625a.346.346,0,0,1,.346.346v8.532a.346.346,0,0,1-.346.346h-19.625a1.6,1.6,0,0,0-1.573,1.3A.346.346,0,0,1,2088.243,3472.9Zm1.913-10.109a1.6,1.6,0,0,0-1.6,1.6v6.89a2.294,2.294,0,0,1,1.6-.653h19.279v-7.84Z" transform="translate(-2087.861 -3462.103)" fill="#41aa54"/></g></g></g><text transform="translate(695.287 508.971)" fill="#fff" font-size="6" font-family="Poppins-Medium, Poppins" font-weight="500"><tspan x="-6.213" y="0">CSV</tspan></text></g></svg>