<svg xmlns="http://www.w3.org/2000/svg" width="23.883" height="29.755" viewBox="0 0 23.883 29.755"><g transform="translate(-595 -396)"><g transform="translate(595 396)"><g transform="translate(0)"><g transform="translate(0 19.847)"><circle cx="1.779" cy="1.779" r="1.779" transform="translate(0 2.516) rotate(-45)" fill="#0189ff"/><path d="M3324.121,2123.247a2.119,2.119,0,1,1,2.119-2.119A2.121,2.121,0,0,1,3324.121,2123.247Zm0-3.558a1.439,1.439,0,1,0,1.439,1.439A1.441,1.441,0,0,0,3324.121,2119.688Z" transform="translate(-3321.604 -2118.612)" fill="#0189ff"/></g><g transform="translate(2.299 0)"><path d="M3377.823,1738.137h-8.656a4.277,4.277,0,0,0-4.278,4.278v20.521a4.278,4.278,0,0,0,4.278,4.278h12.349a4.278,4.278,0,0,0,4.278-4.278v-16.828Z" transform="translate(-3364.55 -1737.797)" fill="#fff"/><path d="M3375.355,1761.392h-12.349a4.622,4.622,0,0,1-4.617-4.617v-20.521a4.622,4.622,0,0,1,4.617-4.617h8.656a.339.339,0,0,1,.24.1l7.971,7.971a.339.339,0,0,1,.1.24v16.828A4.623,4.623,0,0,1,3375.355,1761.392Zm-12.349-29.076a3.942,3.942,0,0,0-3.938,3.938v20.521a3.942,3.942,0,0,0,3.938,3.938h12.349a3.943,3.943,0,0,0,3.938-3.938v-16.687l-7.772-7.771Z" transform="translate(-3358.389 -1731.637)" fill="#0189ff"/></g><g transform="translate(15.233 0)"><path d="M3612.373,1738.137l7.971,7.971h-6.271a1.7,1.7,0,0,1-1.7-1.7Z" transform="translate(-3612.033 -1737.797)" fill="#0189ff"/><path d="M3614.185,1740.287h-6.272a2.041,2.041,0,0,1-2.039-2.039v-6.271a.34.34,0,0,1,.58-.24l7.955,7.955a.34.34,0,0,1-.224.6Zm-7.632-7.49v5.451a1.362,1.362,0,0,0,1.36,1.36h5.451Z" transform="translate(-3605.874 -1731.637)" fill="#0189ff"/></g><g transform="translate(0.425 11.765)"><path d="M3330.941,1963.255a1.913,1.913,0,0,0-1.913,1.913v8.012h.035a1.914,1.914,0,0,1,1.878-1.549h19.268v-8.376Z" transform="translate(-3328.688 -1962.915)" fill="#0189ff"/><path d="M3322.9,1967.359h-.035a.34.34,0,0,1-.34-.339v-8.012a2.255,2.255,0,0,1,2.253-2.253h19.267a.34.34,0,0,1,.34.34v8.376a.34.34,0,0,1-.34.34H3324.78a1.575,1.575,0,0,0-1.545,1.274A.339.339,0,0,1,3322.9,1967.359Zm1.878-9.925a1.576,1.576,0,0,0-1.574,1.574v6.765a2.253,2.253,0,0,1,1.574-.641h18.928v-7.7Z" transform="translate(-3322.527 -1956.755)" fill="#0189ff"/></g></g></g><text transform="translate(605 414)" fill="#fff" font-size="6" font-family="Poppins-Medium, Poppins" font-weight="500"><tspan x="-7.338" y="0">Docx</tspan></text></g></svg>