<svg aria-hidden="true" focusable="false" data-prefix="far" data-icon="bars-filter" class="svg-inline--fa fa-bars-filter fa-fw fa-1x " role="img" xmlns="http://www.w3.org/2000/svg" viewBox="0 0 448 512"><path fill="currentColor" d="M0 88C0 74.7 10.7 64 24 64H424c13.3 0 24 10.7 24 24s-10.7 24-24 24H24C10.7 112 0 101.3 0 88zM64 248c0-13.3 10.7-24 24-24H360c13.3 0 24 10.7 24 24s-10.7 24-24 24H88c-13.3 0-24-10.7-24-24zM288 408c0 13.3-10.7 24-24 24H184c-13.3 0-24-10.7-24-24s10.7-24 24-24h80c13.3 0 24 10.7 24 24z"></path></svg>