<svg xmlns="http://www.w3.org/2000/svg" width="23.845" height="29.707" viewBox="0 0 23.845 29.707"><g transform="translate(-3314.402 -1731.637)"><g transform="translate(3314.402 1731.637)"><g transform="translate(0 19.815)"><circle cx="1.776" cy="1.776" r="1.776" transform="translate(0 2.512) rotate(-45)" fill="#ff0101"/><path d="M3324.117,2123.24a2.115,2.115,0,1,1,2.115-2.115A2.118,2.118,0,0,1,3324.117,2123.24Zm0-3.552a1.437,1.437,0,1,0,1.437,1.437A1.438,1.438,0,0,0,3324.117,2119.688Z" transform="translate(-3321.605 -2118.612)" fill="#ff0101"/></g><g transform="translate(2.295 0)"><path d="M3377.8,1738.137h-8.642a4.271,4.271,0,0,0-4.271,4.271V1762.9a4.271,4.271,0,0,0,4.271,4.271h12.329a4.271,4.271,0,0,0,4.271-4.271v-16.8Z" transform="translate(-3364.55 -1737.798)" fill="#fff"/><path d="M3375.328,1761.344H3363a4.615,4.615,0,0,1-4.61-4.61v-20.488a4.615,4.615,0,0,1,4.61-4.61h8.642a.339.339,0,0,1,.24.1l7.958,7.958a.34.34,0,0,1,.1.24v16.8A4.615,4.615,0,0,1,3375.328,1761.344ZM3363,1732.315a3.936,3.936,0,0,0-3.931,3.931v20.488a3.936,3.936,0,0,0,3.931,3.931h12.329a3.936,3.936,0,0,0,3.932-3.931v-16.66l-7.759-7.759Z" transform="translate(-3358.389 -1731.637)" fill="#ff0101"/></g><g transform="translate(15.208 0)"><path d="M3612.373,1738.137l7.958,7.958h-6.261a1.7,1.7,0,0,1-1.7-1.7Z" transform="translate(-3612.034 -1737.798)" fill="red"/><path d="M3614.171,1740.273h-6.261a2.038,2.038,0,0,1-2.036-2.036v-6.261a.339.339,0,0,1,.579-.24l7.942,7.943a.339.339,0,0,1-.224.594Zm-7.62-7.478v5.442a1.36,1.36,0,0,0,1.358,1.358h5.442Z" transform="translate(-3605.874 -1731.637)" fill="#ff0101"/></g><g transform="translate(0.424 11.746)"><path d="M3330.938,1963.255a1.91,1.91,0,0,0-1.91,1.91v8h.035a1.91,1.91,0,0,1,1.875-1.547h19.236v-8.363Z" transform="translate(-3328.689 -1962.916)" fill="#ff0101"/><path d="M3322.9,1967.342h-.035a.339.339,0,0,1-.339-.339v-8a2.252,2.252,0,0,1,2.25-2.249h19.236a.339.339,0,0,1,.339.339v8.363a.339.339,0,0,1-.339.339h-19.236a1.572,1.572,0,0,0-1.542,1.271A.339.339,0,0,1,3322.9,1967.342Zm1.875-9.909a1.573,1.573,0,0,0-1.571,1.571v6.754a2.249,2.249,0,0,1,1.571-.64h18.9v-7.684Z" transform="translate(-3322.527 -1956.755)" fill="red"/></g></g><g transform="translate(3320.281 1745.594)"><path d="M3427.069,1999.4a.257.257,0,0,1,.251-.257h1.432c1.015,0,1.683.539,1.683,1.426v.013c0,.97-.809,1.471-1.766,1.471h-1.092v1.362a.254.254,0,1,1-.508,0Zm1.619,2.19c.745,0,1.233-.4,1.233-.989v-.013c0-.642-.481-.976-1.207-.976h-1.137v1.978Z" transform="translate(-3427.069 -1999.144)" fill="#fff" stroke="#fff" stroke-width="0.7"/><path d="M3509.3,1999.4a.257.257,0,0,1,.251-.257h1.31a2.241,2.241,0,0,1,2.389,2.235v.013a2.251,2.251,0,0,1-2.389,2.248h-1.31a.257.257,0,0,1-.251-.257Zm1.561,3.77a1.74,1.74,0,0,0,1.863-1.766v-.013a1.75,1.75,0,0,0-1.863-1.779h-1.053v3.558Z" transform="translate(-3505.01 -1999.144)" fill="#fff" stroke="#fff" stroke-width="0.7"/><path d="M3605.564,1999.4a.257.257,0,0,1,.25-.257h2.781a.23.23,0,0,1,.231.231.236.236,0,0,1-.231.238h-2.524v1.606h2.235a.231.231,0,1,1,0,.462h-2.235v1.734a.254.254,0,1,1-.507,0Z" transform="translate(-3596.251 -1999.144)" fill="#fff" stroke="#fff" stroke-width="0.7"/></g></g></svg>