<svg xmlns="http://www.w3.org/2000/svg" width="22.966" height="29.096" viewBox="0 0 22.966 29.096"><g transform="translate(-976 -608.554)"><g transform="translate(976 608.554)"><g transform="translate(0)"><g transform="translate(0 19.796)"><circle cx="1.74" cy="1.74" r="1.74" transform="translate(0.332 0.332)" fill="#ff7105"/><path d="M1472.074,2875.959a2.072,2.072,0,1,1,2.072-2.072A2.074,2.074,0,0,1,1472.074,2875.959Zm0-3.479a1.407,1.407,0,1,0,1.407,1.407A1.409,1.409,0,0,0,1472.074,2872.479Z" transform="translate(-1470.002 -2871.815)" fill="#ff7105"/></g><g transform="translate(1.859)"><path d="M1525.536,2490.943h-8.464a4.183,4.183,0,0,0-4.183,4.183v20.066a4.183,4.183,0,0,0,4.183,4.183h12.076a4.183,4.183,0,0,0,4.183-4.183v-16.455Z" transform="translate(-1512.557 -2490.611)" fill="#fff"/><path d="M1522.98,2513.54H1510.9a4.52,4.52,0,0,1-4.515-4.515v-20.066a4.52,4.52,0,0,1,4.515-4.515h8.464a.332.332,0,0,1,.235.1l7.794,7.794a.332.332,0,0,1,.1.235v16.455A4.52,4.52,0,0,1,1522.98,2513.54Zm-12.076-28.432a3.855,3.855,0,0,0-3.851,3.851v20.066a3.855,3.855,0,0,0,3.851,3.851h12.076a3.855,3.855,0,0,0,3.851-3.851v-16.317l-7.6-7.6Z" transform="translate(-1506.389 -2484.443)" fill="#ff7105"/></g><g transform="translate(14.507 0)"><path d="M1760.374,2490.943l7.794,7.794h-6.132a1.662,1.662,0,0,1-1.662-1.662Z" transform="translate(-1760.042 -2490.611)" fill="#ff7105"/><path d="M1762,2492.9h-6.133a2,2,0,0,1-1.994-1.994v-6.132a.332.332,0,0,1,.567-.235l7.779,7.779a.332.332,0,0,1-.219.582Zm-7.463-7.324v5.33a1.331,1.331,0,0,0,1.33,1.33h5.33Z" transform="translate(-1753.874 -2484.444)" fill="#ff7105"/></g><g transform="translate(0.027 11.504)"><path d="M1478.9,2716.061a1.871,1.871,0,0,0-1.871,1.871v7.834h.034a1.872,1.872,0,0,1,1.837-1.515h18.841v-8.19Z" transform="translate(-1476.696 -2715.729)" fill="#ff7105"/><path d="M1470.894,2719.932h-.034a.332.332,0,0,1-.332-.332v-7.834a2.205,2.205,0,0,1,2.2-2.2h18.841a.332.332,0,0,1,.332.332v8.191a.332.332,0,0,1-.332.332h-18.841a1.54,1.54,0,0,0-1.51,1.246A.332.332,0,0,1,1470.894,2719.932Zm1.837-9.705a1.54,1.54,0,0,0-1.539,1.539v6.615a2.2,2.2,0,0,1,1.539-.627h18.508v-7.526Z" transform="translate(-1470.528 -2709.562)" fill="#ff7105"/></g></g></g><text transform="translate(986.075 626.478)" fill="#fff" font-size="6" font-family="Poppins-Medium, Poppins" font-weight="500"><tspan x="-5.364" y="0">TXT</tspan></text></g></svg>